# xmcd
# 
# Track frame offsets:
#     150
#     62752
#     95551
#     123658
#     142451
#     155756
# 
# Disc length: 2338
# 
# Revision: 9
# Processed by: cddbd v1.5.2PL0 Copyright (c) Steve Scherf et al.
# Submitted via: fre:ac v1.1beta1pre5
# 
DISCID=5e092006
DTITLE=Helloween - Keeper of the Seven Keys -The Legacy- [CD 1)
DYEAR=2005
DGENRE=Metal
TTITLE0=The King for a 1000 Years
TTITLE1=The Invisible Man
TTITLE2=Born on Judgement Day
TTITLE3=Pleasure Drone
TTITLE4=Mrs. God
TTITLE5=Silent Rain
EXTD=
EXTT0=
EXTT1=
EXTT2=
EXTT3=
EXTT4=
EXTT5=
PLAYORDER=
